<svg width="233" height="42" viewBox="0 0 233 42" fill="none" xmlns="http://www.w3.org/2000/svg">
<path fill-rule="evenodd" clip-rule="evenodd" d="M229.357 22.4163V36.8884H224.065V22.4163H221.984V17.8416H224.065V11.3318H229.357V17.8416H233V22.4163H229.357ZM216.345 36.8884H211.054V22.4163H209.058V17.8416H211.054V11.7278C211.054 8.61979 211.878 6.37625 213.526 4.99771C214.769 3.94178 216.316 3.41406 218.167 3.41406C219.266 3.41406 220.277 3.63386 221.203 4.07396V8.95658C220.509 8.42836 219.714 8.1645 218.817 8.1645C217.979 8.1645 217.343 8.48761 216.909 9.13231C216.533 9.74815 216.345 10.8481 216.345 12.4313V17.8416H221.203V22.4163H216.345V36.8884ZM202.856 13.0031C201.989 13.0031 201.244 12.6886 200.623 12.0575C200.001 11.4275 199.69 10.6719 199.69 9.79221C199.69 8.91252 200.001 8.15792 200.623 7.52689C201.244 6.89637 201.989 6.58136 202.856 6.58136C203.724 6.58136 204.468 6.89637 205.09 7.52689C205.712 8.15792 206.023 8.91252 206.023 9.79221C206.023 10.6719 205.712 11.4275 205.09 12.0575C204.468 12.6886 203.724 13.0031 202.856 13.0031ZM181.214 37.5478C176.731 37.5478 173.081 36.1338 170.262 33.3033C167.443 30.4738 166.033 26.7864 166.033 22.2406C166.033 17.6953 167.471 14.0007 170.349 11.1556C173.226 8.31187 176.905 6.88928 181.387 6.88928C183.295 6.88928 185.03 7.15313 186.592 7.68085C188.154 8.20856 189.426 8.91252 190.409 9.79221C191.392 10.6719 192.114 11.3976 192.577 11.9694C193.04 12.5412 193.445 13.1504 193.792 13.7951L188.891 16.4783C188.659 16.0974 188.392 15.7085 188.088 15.3124C187.785 14.9169 187.33 14.4479 186.722 13.905C186.115 13.3626 185.341 12.923 184.401 12.5852C183.461 12.2485 182.442 12.0793 181.344 12.0793C178.539 12.0793 176.255 13.0694 174.491 15.0486C172.727 17.0283 171.845 19.4551 171.845 22.3287C171.845 24.9389 172.64 27.2625 174.231 29.3004C175.821 31.3388 178.178 32.3578 181.3 32.3578C183.469 32.3578 185.312 31.8448 186.83 30.8182C188.349 29.7916 189.252 28.2227 189.541 26.1113H182.081V21.1846H195.354V21.9327C195.354 25.9508 194.471 29.2498 192.708 31.8296C190.105 35.6421 186.273 37.5478 181.214 37.5478ZM150.151 37.2576C148.259 37.2576 146.741 36.7213 145.596 35.6476C144.329 34.4864 143.696 33 143.696 31.1874C143.696 29.3576 144.329 27.8621 145.596 26.7008C146.741 25.6277 148.259 25.0908 150.151 25.0908C152.042 25.0908 153.56 25.6277 154.705 26.7008C155.971 27.8621 156.604 29.3576 156.604 31.1874C156.604 33 155.971 34.4864 154.705 35.6476C153.56 36.7213 152.042 37.2576 150.151 37.2576ZM152.415 28.8912C151.807 28.2581 151.052 27.9411 150.151 27.9411C149.248 27.9411 148.493 28.2581 147.887 28.8912C147.279 29.5247 146.976 30.29 146.976 31.1874C146.976 32.0676 147.279 32.8237 147.887 33.4573C148.493 34.0908 149.248 34.4074 150.151 34.4074C151.052 34.4074 151.807 34.0908 152.415 33.4573C153.022 32.8237 153.326 32.0676 153.326 31.1874C153.326 30.29 153.022 29.5247 152.415 28.8912ZM140.157 36.8884H136.983V28.205H135.734V25.4605H136.983V21.5543H140.157V25.4605H142.344V28.205H140.157V36.8884ZM117.093 37.5043C114.171 37.5043 111.902 36.7856 110.283 35.3488C108.75 34.0002 107.984 32.0499 107.984 29.4984V17.8416H113.276V28.6187C113.276 30.1436 113.651 31.2578 114.403 31.9618C115.126 32.607 116.022 32.9296 117.093 32.9296C118.162 32.9296 119.059 32.607 119.781 31.9618C120.533 31.2578 120.909 30.1436 120.909 28.6187V17.8416H126.201V29.4984C126.201 32.0499 125.434 34.0002 123.902 35.3488C122.282 36.7856 120.013 37.5043 117.093 37.5043ZM92.717 37.5043C89.5652 37.5043 87.0353 36.6099 85.1269 34.8206C83.0158 32.8855 81.9605 30.4075 81.9605 27.3871C81.9605 24.3373 83.0158 21.8445 85.1269 19.9094C87.0353 18.1207 89.5652 17.2258 92.717 17.2258C95.8684 17.2258 98.3988 18.1207 100.307 19.9094C102.418 21.8445 103.474 24.3373 103.474 27.3871C103.474 30.4075 102.418 32.8855 100.307 34.8206C98.3988 36.6099 95.8684 37.5043 92.717 37.5043ZM96.4903 23.5604C95.4781 22.5044 94.2202 21.9767 92.717 21.9767C91.2133 21.9767 89.9554 22.5044 88.9438 23.5604C87.9311 24.6158 87.4255 25.8915 87.4255 27.3871C87.4255 28.8537 87.9311 30.1143 88.9438 31.1702C89.9554 32.2256 91.2133 32.7533 92.717 32.7533C94.2202 32.7533 95.4781 32.2256 96.4903 31.1702C97.5025 30.1143 98.0085 28.8537 98.0085 27.3871C98.0085 25.8915 97.5025 24.6158 96.4903 23.5604ZM74.9336 36.8884H69.2955V23.4722L59.363 7.54866H66.0424L72.2447 17.754L78.447 7.54866H85.1264L74.9336 23.4722V36.8884ZM205.502 36.8884H200.211V17.8416H205.502V36.8884Z" fill="#2F2F2F"/>
<path d="M34.4152 41.9999H23.8625L23.853 24.3108L41.5541 24.3198V34.8942C41.5541 38.8184 38.3578 41.9999 34.4152 41.9999ZM34.2158 10.3674L23.8487 16.1254L23.8406 0.445801H34.4152C38.3578 0.445801 41.5541 3.6273 41.5541 7.55158V18.1406L34.2158 18.1368V10.3674ZM17.6688 18.1283L0 18.1188V7.55158C0 3.6273 3.19585 0.445801 7.13891 0.445801H17.6597L17.6688 18.1283ZM7.30643 32.0623L17.6731 26.3047L17.6816 41.9999H7.13891C3.19585 41.9999 0 38.8184 0 34.8942V24.298L7.30643 24.3018V32.0623Z" fill="url(#paint0_linear_2854_1191)"/>
<defs>
<linearGradient id="paint0_linear_2854_1191" x1="0" y1="0.445801" x2="41.5541" y2="41.9999" gradientUnits="userSpaceOnUse">
<stop stop-color="#1DE5E2"/>
<stop offset="1" stop-color="#B588F7"/>
</linearGradient>
</defs>
</svg>
